<?xml version="1.0" encoding="UTF-8"?>
<svg xmlns="http://www.w3.org/2000/svg" xmlns:xlink="http://www.w3.org/1999/xlink" width="20px" height="20px" viewBox="0 0 20 20" version="1.1">
<g id="surface1">
<path style=" stroke:none;fill-rule:evenodd;fill:rgb(100%,84.313725%,0%);fill-opacity:1;" d="M 13.566406 5.914062 C 13.636719 6.054688 13.738281 6.175781 13.859375 6.273438 C 13.988281 6.367188 14.132812 6.433594 14.289062 6.464844 L 19.171875 7.453125 C 19.5625 7.527344 19.871094 7.824219 19.96875 8.210938 C 20.058594 8.597656 19.910156 9 19.59375 9.238281 L 15.796875 12.121094 C 15.648438 12.230469 15.535156 12.382812 15.464844 12.554688 C 15.398438 12.726562 15.378906 12.910156 15.410156 13.09375 L 16.4375 18.796875 C 16.507812 19.1875 16.339844 19.578125 16.011719 19.800781 C 15.683594 20.023438 15.253906 20.042969 14.902344 19.847656 L 10.515625 17.382812 C 10.195312 17.203125 9.804688 17.203125 9.484375 17.382812 L 5.097656 19.847656 C 4.75 20.042969 4.320312 20.023438 3.988281 19.800781 C 3.664062 19.578125 3.496094 19.1875 3.566406 18.796875 L 4.589844 13.09375 C 4.621094 12.914062 4.605469 12.726562 4.535156 12.554688 C 4.46875 12.382812 4.351562 12.234375 4.207031 12.121094 L 0.40625 9.238281 C 0.0898438 9.003906 -0.0546875 8.597656 0.0351562 8.214844 C 0.128906 7.824219 0.441406 7.527344 0.832031 7.453125 L 5.710938 6.464844 C 5.867188 6.433594 6.011719 6.367188 6.140625 6.273438 C 6.265625 6.179688 6.363281 6.054688 6.433594 5.914062 L 9.070312 0.582031 C 9.25 0.234375 9.609375 0.0117188 10 0.0117188 C 10.394531 0.0117188 10.753906 0.234375 10.929688 0.582031 Z M 13.566406 5.914062 "/>
</g>
</svg>
